# xmcd
#
# Track frame offsets:
#   150
#   19780
#   44124
#   60243
#   69186
#   98283
#   118797
#   143282
#
# Disc length: 1999 seconds
#
# Revision: 0
# Processed by: cddbd v1.5.1PL2 Copyright (c) Steve Scherf et al.
# Submitted via: GXTranscoder 2.0.1939
#
DISCID=5b07cd08
DTITLE=Sadov Sergey - Obereg
DYEAR=2005
DGENRE=Country
TTITLE0=1
TTITLE1=2
TTITLE2=3
TTITLE3=4
TTITLE4=5
TTITLE5=6
TTITLE6=7
TTITLE7=8
EXTD=
EXTT0=
EXTT1=
EXTT2=
EXTT3=
EXTT4=
EXTT5=
EXTT6=
EXTT7=
PLAYORDER=
